<mxfile host="app.diagrams.net" modified="2023-10-04T18:00:11.053Z" agent="Mozilla/5.0 (Windows NT 10.0; Win64; x64) AppleWebKit/537.36 (KHTML, like Gecko) Chrome/117.0.0.0 Safari/537.36 Edg/117.0.2045.47" etag="5Bbp3YRUDWosQWP2jrL_" version="22.0.2" type="device">
  <diagram name="PÃ¡gina-1" id="nhrGNR9le8o3pZKuI3tN">
    <mxGraphModel dx="389" dy="480" grid="1" gridSize="10" guides="1" tooltips="1" connect="1" arrows="1" fold="1" page="1" pageScale="1" pageWidth="827" pageHeight="1169" math="0" shadow="0">
      <root>
        <mxCell id="0" />
        <mxCell id="1" parent="0" />
        <mxCell id="dsV-UYUM1OgJ3O0Zoh_p-1" value="PROVEEDORES" style="rounded=0;whiteSpace=wrap;html=1;" vertex="1" parent="1">
          <mxGeometry x="220" y="40" width="120" height="60" as="geometry" />
        </mxCell>
        <mxCell id="dsV-UYUM1OgJ3O0Zoh_p-2" value="NOMBRE" style="ellipse;whiteSpace=wrap;html=1;" vertex="1" parent="1">
          <mxGeometry x="340" y="150" width="120" height="80" as="geometry" />
        </mxCell>
        <mxCell id="dsV-UYUM1OgJ3O0Zoh_p-3" value="NUMERO&lt;u&gt; &lt;/u&gt;DE&lt;u&gt; &lt;/u&gt;TELEFONO" style="ellipse;whiteSpace=wrap;html=1;" vertex="1" parent="1">
          <mxGeometry x="70" y="90" width="120" height="80" as="geometry" />
        </mxCell>
        <mxCell id="dsV-UYUM1OgJ3O0Zoh_p-4" value="PROVEEN" style="rhombus;whiteSpace=wrap;html=1;" vertex="1" parent="1">
          <mxGeometry x="230" y="190" width="100" height="80" as="geometry" />
        </mxCell>
        <mxCell id="dsV-UYUM1OgJ3O0Zoh_p-5" value="PROCUCTOS" style="rounded=0;whiteSpace=wrap;html=1;" vertex="1" parent="1">
          <mxGeometry x="220" y="340" width="120" height="60" as="geometry" />
        </mxCell>
        <mxCell id="dsV-UYUM1OgJ3O0Zoh_p-6" value="&lt;u&gt;CODIGO DE BARRAS&lt;/u&gt;" style="ellipse;whiteSpace=wrap;html=1;" vertex="1" parent="1">
          <mxGeometry x="354" y="360" width="120" height="80" as="geometry" />
        </mxCell>
        <mxCell id="dsV-UYUM1OgJ3O0Zoh_p-7" value="PRECIO ASOCIADO" style="ellipse;whiteSpace=wrap;html=1;" vertex="1" parent="1">
          <mxGeometry x="70" y="360" width="120" height="80" as="geometry" />
        </mxCell>
        <mxCell id="dsV-UYUM1OgJ3O0Zoh_p-8" value="VENDEN" style="rhombus;whiteSpace=wrap;html=1;" vertex="1" parent="1">
          <mxGeometry x="240" y="480" width="80" height="80" as="geometry" />
        </mxCell>
        <mxCell id="dsV-UYUM1OgJ3O0Zoh_p-9" value="EMPLEADOS" style="rounded=0;whiteSpace=wrap;html=1;" vertex="1" parent="1">
          <mxGeometry x="220" y="640" width="120" height="60" as="geometry" />
        </mxCell>
        <mxCell id="dsV-UYUM1OgJ3O0Zoh_p-10" value="NOMBRE Y APELLIDOS" style="ellipse;whiteSpace=wrap;html=1;" vertex="1" parent="1">
          <mxGeometry x="354" y="630" width="120" height="80" as="geometry" />
        </mxCell>
        <mxCell id="dsV-UYUM1OgJ3O0Zoh_p-11" value="&lt;u&gt;DNI&lt;/u&gt;" style="ellipse;whiteSpace=wrap;html=1;" vertex="1" parent="1">
          <mxGeometry x="70" y="630" width="120" height="80" as="geometry" />
        </mxCell>
        <mxCell id="dsV-UYUM1OgJ3O0Zoh_p-13" value="" style="endArrow=none;html=1;rounded=0;entryX=0;entryY=0.75;entryDx=0;entryDy=0;exitX=1;exitY=0;exitDx=0;exitDy=0;" edge="1" parent="1" source="dsV-UYUM1OgJ3O0Zoh_p-3" target="dsV-UYUM1OgJ3O0Zoh_p-1">
          <mxGeometry width="50" height="50" relative="1" as="geometry">
            <mxPoint x="240" y="210" as="sourcePoint" />
            <mxPoint x="290" y="160" as="targetPoint" />
          </mxGeometry>
        </mxCell>
        <mxCell id="dsV-UYUM1OgJ3O0Zoh_p-14" value="" style="endArrow=none;html=1;rounded=0;entryX=1;entryY=0.75;entryDx=0;entryDy=0;exitX=0;exitY=0;exitDx=0;exitDy=0;" edge="1" parent="1" source="dsV-UYUM1OgJ3O0Zoh_p-2" target="dsV-UYUM1OgJ3O0Zoh_p-1">
          <mxGeometry width="50" height="50" relative="1" as="geometry">
            <mxPoint x="240" y="210" as="sourcePoint" />
            <mxPoint x="290" y="160" as="targetPoint" />
          </mxGeometry>
        </mxCell>
        <mxCell id="dsV-UYUM1OgJ3O0Zoh_p-16" value="" style="endArrow=none;html=1;rounded=0;entryX=0.5;entryY=1;entryDx=0;entryDy=0;exitX=0.5;exitY=0;exitDx=0;exitDy=0;" edge="1" parent="1" source="dsV-UYUM1OgJ3O0Zoh_p-4" target="dsV-UYUM1OgJ3O0Zoh_p-1">
          <mxGeometry width="50" height="50" relative="1" as="geometry">
            <mxPoint x="240" y="210" as="sourcePoint" />
            <mxPoint x="290" y="160" as="targetPoint" />
          </mxGeometry>
        </mxCell>
        <mxCell id="dsV-UYUM1OgJ3O0Zoh_p-17" value="" style="endArrow=none;html=1;rounded=0;entryX=0.5;entryY=1;entryDx=0;entryDy=0;exitX=0.5;exitY=0;exitDx=0;exitDy=0;" edge="1" parent="1" source="dsV-UYUM1OgJ3O0Zoh_p-5" target="dsV-UYUM1OgJ3O0Zoh_p-4">
          <mxGeometry width="50" height="50" relative="1" as="geometry">
            <mxPoint x="240" y="390" as="sourcePoint" />
            <mxPoint x="290" y="340" as="targetPoint" />
          </mxGeometry>
        </mxCell>
        <mxCell id="dsV-UYUM1OgJ3O0Zoh_p-18" value="" style="endArrow=none;html=1;rounded=0;entryX=0;entryY=0.5;entryDx=0;entryDy=0;exitX=1;exitY=0;exitDx=0;exitDy=0;" edge="1" parent="1" source="dsV-UYUM1OgJ3O0Zoh_p-7" target="dsV-UYUM1OgJ3O0Zoh_p-5">
          <mxGeometry width="50" height="50" relative="1" as="geometry">
            <mxPoint x="240" y="390" as="sourcePoint" />
            <mxPoint x="290" y="340" as="targetPoint" />
          </mxGeometry>
        </mxCell>
        <mxCell id="dsV-UYUM1OgJ3O0Zoh_p-19" value="" style="endArrow=none;html=1;rounded=0;entryX=1;entryY=0.5;entryDx=0;entryDy=0;exitX=0;exitY=0;exitDx=0;exitDy=0;" edge="1" parent="1" source="dsV-UYUM1OgJ3O0Zoh_p-6" target="dsV-UYUM1OgJ3O0Zoh_p-5">
          <mxGeometry width="50" height="50" relative="1" as="geometry">
            <mxPoint x="240" y="390" as="sourcePoint" />
            <mxPoint x="290" y="340" as="targetPoint" />
          </mxGeometry>
        </mxCell>
        <mxCell id="dsV-UYUM1OgJ3O0Zoh_p-20" value="" style="endArrow=none;html=1;rounded=0;entryX=0.5;entryY=1;entryDx=0;entryDy=0;exitX=0.5;exitY=0;exitDx=0;exitDy=0;" edge="1" parent="1" source="dsV-UYUM1OgJ3O0Zoh_p-8" target="dsV-UYUM1OgJ3O0Zoh_p-5">
          <mxGeometry width="50" height="50" relative="1" as="geometry">
            <mxPoint x="240" y="390" as="sourcePoint" />
            <mxPoint x="290" y="340" as="targetPoint" />
          </mxGeometry>
        </mxCell>
        <mxCell id="dsV-UYUM1OgJ3O0Zoh_p-21" value="" style="endArrow=none;html=1;rounded=0;entryX=0.5;entryY=1;entryDx=0;entryDy=0;exitX=0.5;exitY=0;exitDx=0;exitDy=0;" edge="1" parent="1" source="dsV-UYUM1OgJ3O0Zoh_p-9" target="dsV-UYUM1OgJ3O0Zoh_p-8">
          <mxGeometry width="50" height="50" relative="1" as="geometry">
            <mxPoint x="240" y="670" as="sourcePoint" />
            <mxPoint x="290" y="620" as="targetPoint" />
          </mxGeometry>
        </mxCell>
        <mxCell id="dsV-UYUM1OgJ3O0Zoh_p-22" value="" style="endArrow=none;html=1;rounded=0;entryX=0;entryY=0.5;entryDx=0;entryDy=0;exitX=1;exitY=0.5;exitDx=0;exitDy=0;" edge="1" parent="1" source="dsV-UYUM1OgJ3O0Zoh_p-11" target="dsV-UYUM1OgJ3O0Zoh_p-9">
          <mxGeometry width="50" height="50" relative="1" as="geometry">
            <mxPoint x="240" y="670" as="sourcePoint" />
            <mxPoint x="290" y="620" as="targetPoint" />
          </mxGeometry>
        </mxCell>
        <mxCell id="dsV-UYUM1OgJ3O0Zoh_p-23" value="" style="endArrow=none;html=1;rounded=0;entryX=1;entryY=0.5;entryDx=0;entryDy=0;exitX=0;exitY=0.5;exitDx=0;exitDy=0;" edge="1" parent="1" source="dsV-UYUM1OgJ3O0Zoh_p-10" target="dsV-UYUM1OgJ3O0Zoh_p-9">
          <mxGeometry width="50" height="50" relative="1" as="geometry">
            <mxPoint x="240" y="670" as="sourcePoint" />
            <mxPoint x="290" y="620" as="targetPoint" />
          </mxGeometry>
        </mxCell>
        <mxCell id="dsV-UYUM1OgJ3O0Zoh_p-24" value="EMPLEADOS(NOMBRE,&lt;u&gt;DNI&lt;/u&gt;)&lt;br&gt;PRODUCTOS(&lt;u&gt;CODIGO DE BARRAS,&lt;/u&gt;PRECIO)&lt;br&gt;PROVEEDORES(NOMBRE, TELEFONO ,&lt;u&gt;DNI)&lt;/u&gt;" style="text;html=1;strokeColor=none;fillColor=none;align=center;verticalAlign=middle;whiteSpace=wrap;rounded=0;" vertex="1" parent="1">
          <mxGeometry x="550" y="100" width="210" height="190" as="geometry" />
        </mxCell>
        <mxCell id="dsV-UYUM1OgJ3O0Zoh_p-25" value="DNI" style="ellipse;whiteSpace=wrap;html=1;" vertex="1" parent="1">
          <mxGeometry x="390" y="40" width="120" height="80" as="geometry" />
        </mxCell>
        <mxCell id="dsV-UYUM1OgJ3O0Zoh_p-26" value="" style="endArrow=none;html=1;rounded=0;exitX=0;exitY=0.5;exitDx=0;exitDy=0;" edge="1" parent="1" source="dsV-UYUM1OgJ3O0Zoh_p-25">
          <mxGeometry width="50" height="50" relative="1" as="geometry">
            <mxPoint x="290" y="110" as="sourcePoint" />
            <mxPoint x="340" y="60" as="targetPoint" />
          </mxGeometry>
        </mxCell>
        <mxCell id="dsV-UYUM1OgJ3O0Zoh_p-27" value="PRODUCTOS--&amp;gt;IDPROVEEDORES--&amp;gt;PROVEEDORES&lt;br&gt;VENDEN--&amp;gt;DNI EMPLEADOS--&amp;gt;CODIGO DE BARRAS" style="text;html=1;strokeColor=none;fillColor=none;align=center;verticalAlign=middle;whiteSpace=wrap;rounded=0;" vertex="1" parent="1">
          <mxGeometry x="590" y="320" width="170" height="60" as="geometry" />
        </mxCell>
        <mxCell id="dsV-UYUM1OgJ3O0Zoh_p-28" value="CLAVES AJENAS" style="text;html=1;strokeColor=none;fillColor=none;align=center;verticalAlign=middle;whiteSpace=wrap;rounded=0;" vertex="1" parent="1">
          <mxGeometry x="590" y="260" width="60" height="30" as="geometry" />
        </mxCell>
      </root>
    </mxGraphModel>
  </diagram>
</mxfile>
